<svg width="190" height="32" viewBox="0 0 190 32" fill="none" xmlns="http://www.w3.org/2000/svg">
<path fill-rule="evenodd" clip-rule="evenodd" d="M25.2205 14.9309C25.1965 14.9154 25.1662 14.91 25.1367 14.9188C25.104 14.9285 25.0799 14.9533 25.0697 14.9834C23.9448 17.1267 22.5481 19.0499 20.8919 20.7262C18.649 19.5567 16.7577 18.1071 15.0109 16.3029C14.9721 16.2629 14.9081 16.2618 14.868 16.3006C14.8595 16.3089 14.8527 16.3182 14.8478 16.3282C14.8461 16.3311 14.8446 16.3342 14.8433 16.3374C13.877 18.5728 12.5757 20.6295 11.0023 22.4442C9.33858 24.3631 7.37086 26.0114 5.17412 27.314C5.12612 27.3425 5.11029 27.4045 5.13875 27.4525C5.15052 27.4723 5.16801 27.4866 5.18789 27.4946C5.19086 27.4974 5.19406 27.5 5.19743 27.5025C9.08903 30.3073 13.8767 31.9614 19.0533 31.9614C24.4988 31.9614 29.5141 30.1309 33.5085 27.0558C33.5337 27.0365 33.5472 27.0077 33.548 26.9783C33.5489 26.947 33.5353 26.9156 33.5086 26.895C29.6542 23.9261 26.6908 19.7768 25.2663 15.0001C25.2617 14.9723 25.2457 14.9467 25.2205 14.9309ZM25.1405 15.2813C24.0166 17.3767 22.6314 19.2609 20.9963 20.908C20.979 20.9335 20.9514 20.949 20.9221 20.9517C20.8967 20.9546 20.8704 20.948 20.8491 20.9318C18.6083 19.7703 16.7154 18.3334 14.9705 16.5512C14.0022 18.7542 12.7103 20.7827 11.155 22.5766C9.51121 24.4726 7.57315 26.1066 5.41178 27.4074C9.25263 30.1464 13.963 31.7593 19.0533 31.7593C24.4058 31.7593 29.3385 29.9758 33.2817 26.9749C29.5059 24.0338 26.5893 19.9638 25.1405 15.2813Z" fill="#5AA3EF"/>
<path d="M25.1405 15.2813C24.0166 17.3767 22.6314 19.2609 20.9963 20.908C20.979 20.9335 20.9514 20.949 20.9221 20.9517C20.8967 20.9546 20.8704 20.948 20.8491 20.9318C18.6083 19.7703 16.7154 18.3334 14.9705 16.5512C14.0022 18.7542 12.7103 20.7827 11.155 22.5766C9.5112 24.4726 7.57315 26.1066 5.41177 27.4074C9.25263 30.1464 13.963 31.7593 19.0533 31.7593C24.4058 31.7593 29.3385 29.9758 33.2817 26.9749C29.5059 24.0338 26.5893 19.9638 25.1405 15.2813Z" fill="#5AA3EF"/>
<g filter="url(#filter0_d)">
<path fill-rule="evenodd" clip-rule="evenodd" d="M14.9056 7.33217C14.9413 7.36606 14.9951 7.3688 15.0337 7.34137C15.0607 7.32714 15.081 7.30097 15.0864 7.26857C15.7772 3.14748 19.3613 0.00714111 23.6786 0.00714111C26.6704 0.00714111 29.3187 1.4204 30.8867 3.71308C30.9009 3.73383 30.9214 3.7476 30.9438 3.7536C30.9596 3.75891 30.9769 3.76046 30.9943 3.7572C31.5117 3.66194 31.9535 3.61251 32.4963 3.61251C37.3212 3.61251 41.2326 7.52388 41.2326 12.3489C41.2326 17.1738 37.3212 21.0851 32.4963 21.0851C30.3398 21.0851 28.4205 20.247 26.8939 18.9477C26.8802 18.936 26.8642 18.9286 26.8477 18.9254C26.2051 17.6767 25.673 16.3639 25.2662 15.0001C25.2617 14.9723 25.2457 14.9467 25.2205 14.9309C25.1965 14.9154 25.1661 14.91 25.1366 14.9188C25.1039 14.9285 25.0798 14.9533 25.0697 14.9834C23.9447 17.1267 22.548 19.0499 20.8918 20.7262C18.6489 19.5567 16.7577 18.1071 15.0108 16.3029C14.972 16.2629 14.908 16.2618 14.8679 16.3006C14.8594 16.3089 14.8527 16.3182 14.8477 16.3282C14.8461 16.3311 14.8446 16.3342 14.8432 16.3374C13.9142 18.4868 12.6752 20.471 11.1826 22.2337C10.5067 22.4011 9.70572 22.4904 8.97663 22.4904C4.15172 22.4904 0.240341 18.579 0.240341 13.7541C0.240341 8.92914 4.15172 5.01777 8.97663 5.01777C11.3089 5.01777 13.3402 5.84588 14.9056 7.33217Z" fill="#0C7DF2"/>
</g>
<path d="M47.0194 23.1579C47.0194 24.4381 47.6257 25.067 48.8611 25.067C50.0291 25.067 50.6131 24.4381 50.6131 23.1579V11.1865H52.6794C53.8697 11.1865 54.4989 10.5801 54.4989 9.41212C54.4989 8.17675 53.8697 7.5928 52.6794 7.5928H44.9755C43.7402 7.5928 43.1113 8.17675 43.1113 9.41212C43.1113 10.5801 43.7402 11.1865 44.9755 11.1865H47.0194V23.1579ZM54.1954 23.3375C54.1954 24.483 54.7794 25.067 55.9246 25.067C57.1154 25.067 57.6543 24.483 57.6543 23.3375V17.0711C57.6543 16.0829 58.6423 15.3866 59.496 15.3866C59.7206 15.3866 59.8554 15.4315 60.0126 15.4539C60.2371 15.4989 60.5291 15.5213 60.8434 15.5213C61.8766 15.5213 62.6183 14.6903 62.6183 13.7694C62.6183 12.8485 61.944 11.8603 60.1474 11.8603C59.204 11.8603 57.744 12.7811 57.3623 13.5223C57.3171 12.4667 56.6211 12.0399 55.9246 12.0399C54.7794 12.0399 54.1954 12.6239 54.1954 13.8368V23.3375ZM68.7611 11.7929C65.0103 11.7929 62.944 15.0497 62.944 18.4637C62.944 22.1696 65.1451 25.3141 69.0983 25.3141C71.1646 25.3141 72.8263 24.5504 73.9497 23.1579C74.2417 22.8434 74.3314 22.529 74.3314 22.1247C74.3314 21.0915 73.7697 20.6423 73.0509 20.6423C71.8606 20.6423 71.1417 22.0349 69.4126 22.0349C68.4469 22.0349 66.4474 21.3386 66.4474 19.3171H71.5909C73.3206 19.3171 74.376 19.3171 74.376 17.5877C74.376 14.1063 72.3771 11.7929 68.7611 11.7929ZM66.6274 16.9813C66.6274 15.5887 67.7726 14.8475 68.8063 14.8475C69.7943 14.8475 70.7823 15.5438 70.7823 16.9813H66.6274ZM81.768 11.7929C78.0171 11.7929 75.9509 15.0497 75.9509 18.4637C75.9509 22.1696 78.152 25.3141 82.1051 25.3141C84.1714 25.3141 85.8331 24.5504 86.9566 23.1579C87.2486 22.8434 87.3383 22.529 87.3383 22.1247C87.3383 21.0915 86.7766 20.6423 86.0577 20.6423C84.8674 20.6423 84.1486 22.0349 82.4194 22.0349C81.4537 22.0349 79.4543 21.3386 79.4543 19.3171H84.5977C86.3274 19.3171 87.3829 19.3171 87.3829 17.5877C87.3829 14.1063 85.384 11.7929 81.768 11.7929ZM79.6343 16.9813C79.6343 15.5887 80.7794 14.8475 81.8131 14.8475C82.8011 14.8475 83.7891 15.5438 83.7891 16.9813H79.6343ZM88.9126 23.3375C88.9126 24.483 89.4743 25.067 90.5971 25.067C91.7874 25.067 92.3491 24.483 92.3491 23.3375V17.0711C92.3491 15.7459 93.2251 15.0721 94.1234 15.0721C94.932 15.0721 95.7857 15.7235 95.7857 17.0711V23.3375C95.7857 24.483 96.392 25.067 97.5149 25.067C98.6829 25.067 99.2669 24.483 99.2669 23.3375V16.6893C99.4017 15.6111 100.21 15.0721 101.019 15.0721C101.827 15.0721 102.681 15.7235 102.681 17.0711V23.3375C102.681 24.483 103.287 25.067 104.41 25.067C105.578 25.067 106.162 24.483 106.162 23.3375V16.4422C106.162 13.3202 104.298 12.0399 102.389 12.0399C100.974 12.0399 99.5366 12.7362 98.8177 13.9042C98.2114 12.5341 97.088 11.995 95.9206 11.995C94.5726 11.995 93.1354 12.7138 92.3491 13.6122C92.3491 12.9159 91.7874 12.0624 90.5971 12.0624C89.4743 12.0624 88.9126 12.9159 88.9126 13.8593V23.3375ZM109.953 12.6015C109.234 12.8934 108.785 13.3876 108.785 14.0165C108.785 15.1619 109.594 15.4315 110.447 15.4315C111.255 15.4315 111.997 15.1395 112.918 15.1395C114.175 15.1395 115.658 15.9481 115.658 17.2733V18.3738C114.849 17.7898 113.659 17.4529 112.446 17.4529C109.571 17.4529 107.887 19.5642 107.887 21.5857C107.887 23.4498 109.346 25.2242 111.907 25.2242C113.165 25.2242 114.513 24.7076 115.568 23.5846V24.0114C115.635 24.9322 116.601 25.2242 116.983 25.2242C118.083 25.2242 118.735 24.3932 118.735 23.4947V16.7791C118.735 13.3427 115.905 11.995 113.053 11.995C112.019 11.995 110.941 12.1972 109.953 12.6015ZM111.413 21.1364C111.413 20.4177 112.356 20.1033 113.299 20.1033C114.198 20.1033 115.186 20.4402 115.186 21.0241C115.186 21.8102 114.108 22.2145 113.097 22.2145C112.266 22.2145 111.413 21.8551 111.413 21.1364ZM128.316 13.5223C127.619 12.3544 126.294 11.8154 125.217 11.8154C122.768 11.8154 120.433 14.5106 120.433 18.5984C120.433 22.5963 122.813 25.0894 125.194 25.0894C126.407 25.0894 127.619 24.6178 128.518 23.0231C128.518 25.4039 128.046 26.9761 126.047 26.9761C125.418 26.9761 124.767 26.8189 124.138 26.482C123.779 26.3023 123.442 26.0553 122.903 26.0553C121.802 26.0553 121.174 26.9312 121.174 27.8521C121.174 28.4361 121.443 29.0425 122.027 29.4243C123.262 30.1879 124.587 30.5698 125.823 30.5698C129.057 30.5698 131.82 28.0318 131.82 23.3375V13.6346C131.82 12.4667 131.236 11.8378 130.09 11.8378C128.945 11.8378 128.316 12.4667 128.316 13.6346V13.5223ZM126.07 21.9675C124.655 21.9675 123.959 20.3278 123.959 18.6209C123.959 16.8914 124.722 15.0721 126.137 15.0721C127.261 15.0721 128.383 16.3523 128.383 18.531C128.383 20.7097 127.193 21.9675 126.07 21.9675ZM135.616 12.6015C134.897 12.8934 134.448 13.3876 134.448 14.0165C134.448 15.1619 135.257 15.4315 136.11 15.4315C136.918 15.4315 137.659 15.1395 138.581 15.1395C139.838 15.1395 141.321 15.9481 141.321 17.2733V18.3738C140.512 17.7898 139.322 17.4529 138.109 17.4529C135.234 17.4529 133.549 19.5642 133.549 21.5857C133.549 23.4498 135.009 25.2242 137.57 25.2242C138.827 25.2242 140.175 24.7076 141.231 23.5846V24.0114C141.298 24.9322 142.264 25.2242 142.646 25.2242C143.746 25.2242 144.398 24.3932 144.398 23.4947V16.7791C144.398 13.3427 141.568 11.995 138.715 11.995C137.682 11.995 136.604 12.1972 135.616 12.6015ZM137.075 21.1364C137.075 20.4177 138.019 20.1033 138.962 20.1033C139.861 20.1033 140.849 20.4402 140.849 21.0241C140.849 21.8102 139.771 22.2145 138.76 22.2145C137.929 22.2145 137.075 21.8551 137.075 21.1364ZM148.049 11.995C146.859 11.995 146.297 12.5341 146.297 13.7245C146.297 14.8925 146.859 15.2742 148.049 15.2742H151.149L146.589 22.0798C146.23 22.5963 146.05 22.8883 146.05 23.3375C146.05 24.483 146.746 25.067 148.206 25.067H154.63C155.798 25.067 156.382 24.5055 156.382 23.3151C156.382 22.1921 155.798 21.8327 154.63 21.8327H150.745L155.461 15.0047C155.865 14.4207 156.045 14.1288 156.045 13.6122C156.045 12.5116 155.394 11.995 154.158 11.995H148.049ZM158.166 23.3151C158.166 24.5055 158.773 25.067 159.918 25.067C161.086 25.067 161.67 24.5055 161.67 23.3151V13.9042C161.67 12.7362 161.041 12.1747 159.895 12.1747C158.773 12.1747 158.166 12.7362 158.166 13.9042V23.3151ZM157.852 8.82812C157.852 9.95115 158.75 10.8271 159.851 10.8271C160.996 10.8271 161.872 9.95115 161.872 8.82812C161.872 7.70509 160.996 6.82915 159.851 6.82915C158.75 6.82915 157.852 7.70509 157.852 8.82812ZM163.62 23.3375C163.62 24.483 164.181 25.067 165.305 25.067C166.495 25.067 167.056 24.483 167.056 23.3375V17.0711C167.056 15.7459 167.932 15.0721 168.831 15.0721C169.639 15.0721 170.493 15.7235 170.493 17.0711V23.3375C170.493 24.483 171.099 25.067 172.222 25.067C173.39 25.067 173.974 24.483 173.974 23.3375V16.4422C173.974 13.1405 171.908 11.995 170.178 11.995C168.831 11.995 167.842 12.7138 167.056 13.6122C167.056 12.9159 166.495 12.0624 165.305 12.0624C164.181 12.0624 163.62 12.9159 163.62 13.8593V23.3375Z" fill="black"/>
<defs>
<filter id="filter0_d" x="0.240341" y="0.00714111" width="41.5968" height="23.0877" filterUnits="userSpaceOnUse" color-interpolation-filters="sRGB">
<feFlood flood-opacity="0" result="BackgroundImageFix"/>
<feColorMatrix in="SourceAlpha" type="matrix" values="0 0 0 0 0 0 0 0 0 0 0 0 0 0 0 0 0 0 127 0"/>
<feOffset dx="0.302243" dy="0.302243"/>
<feGaussianBlur stdDeviation="0.151122"/>
<feColorMatrix type="matrix" values="0 0 0 0 0 0 0 0 0 0 0 0 0 0 0 0 0 0 0.34 0"/>
<feBlend mode="normal" in2="BackgroundImageFix" result="effect1_dropShadow"/>
<feBlend mode="normal" in="SourceGraphic" in2="effect1_dropShadow" result="shape"/>
</filter>
</defs>
</svg>
